<?xml version="1.0" standalone="no"?>
<!DOCTYPE svg PUBLIC "-//W3C//DTD SVG 20010904//EN"
 "http://www.w3.org/TR/2001/REC-SVG-20010904/DTD/svg10.dtd">
<svg version="1.0" xmlns="http://www.w3.org/2000/svg"
 width="260.000000pt" height="260.000000pt" viewBox="0 0 260.000000 260.000000"
 preserveAspectRatio="xMidYMid meet">
<metadata>
Created by potrace 1.14, written by Peter Selinger 2001-2017
</metadata>
<g transform="translate(0.000000,260.000000) scale(0.100000,-0.100000)"
fill="#000000" stroke="none">
<path d="M0 1300 l0 -1300 1300 0 1300 0 0 1300 0 1300 -1300 0 -1300 0 0
-1300z m1033 841 c67 -32 101 -92 95 -165 -5 -61 -32 -106 -78 -128 l-31 -15
31 -13 c77 -32 111 -83 111 -165 0 -105 -61 -174 -175 -194 -33 -6 -156 -11
-273 -11 l-213 0 0 353 c0 195 3 357 8 361 4 4 113 6 242 4 222 -3 238 -4 283
-27z m1042 -51 l0 -75 -187 -3 -188 -2 0 -55 0 -55 175 0 175 0 0 -75 0 -75
-175 0 -176 0 3 -67 3 -68 193 -3 192 -2 0 -80 0 -80 -305 0 -305 0 0 353 c0
195 3 357 7 360 4 4 137 6 297 5 l291 -3 0 -75z m-1021 -1195 c62 -165 123
-326 134 -358 l22 -58 -116 3 -117 3 -16 55 -17 55 -125 3 -126 3 -18 -61 -18
-60 -113 0 -114 0 11 27 c6 16 64 170 129 343 65 173 122 323 125 333 7 16 20
17 127 15 l120 -3 112 -300z m620 253 c8 -29 33 -125 56 -213 22 -87 42 -160
44 -162 1 -2 27 93 57 209 l55 213 144 0 145 0 3 -357 2 -358 -90 0 -90 0 0
262 c0 144 -4 258 -8 253 -5 -6 -37 -124 -73 -262 l-63 -253 -83 0 -82 0 -10
38 c-5 20 -36 141 -68 267 l-58 230 -3 -267 -2 -268 -90 0 -90 0 0 360 0 360
145 0 144 0 15 -52z"/>
<path d="M730 1955 l0 -65 74 0 c86 0 106 12 106 65 0 49 -28 65 -112 65 l-68
0 0 -65z"/>
<path d="M730 1675 l0 -78 79 5 c98 6 131 24 131 72 0 54 -28 70 -126 75 l-84
3 0 -77z"/>
<path d="M781 887 c-19 -61 -36 -118 -38 -124 -4 -10 14 -13 71 -13 53 0 76 4
76 12 0 17 -62 221 -70 230 -3 4 -21 -43 -39 -105z"/>
</g>
</svg>
